<svg width="36" height="36" viewBox="0 0 36 36" fill="none" xmlns="http://www.w3.org/2000/svg">
<path d="M3.5 1.75C2.5335 1.75 1.75 2.5335 1.75 3.5V13.75C1.75 14.7165 2.5335 15.5 3.5 15.5H13.75C14.7165 15.5 15.5 14.7165 15.5 13.75V3.5C15.5 2.5335 14.7165 1.75 13.75 1.75H3.5ZM22.25 1.75C21.2835 1.75 20.5 2.5335 20.5 3.5V13.75C20.5 14.7165 21.2835 15.5 22.25 15.5H32.5C33.4665 15.5 34.25 14.7165 34.25 13.75V3.5C34.25 2.5335 33.4665 1.75 32.5 1.75H22.25ZM3.5 20.5C2.5335 20.5 1.75 21.2835 1.75 22.25V32.5C1.75 33.4665 2.5335 34.25 3.5 34.25H13.75C14.7165 34.25 15.5 33.4665 15.5 32.5V22.25C15.5 21.2835 14.7165 20.5 13.75 20.5H3.5ZM22.25 20.5C21.2835 20.5 20.5 21.2835 20.5 22.25V32.5C20.5 33.4665 21.2835 34.25 22.25 34.25H32.5C33.4665 34.25 34.25 33.4665 34.25 32.5V22.25C34.25 21.2835 33.4665 20.5 32.5 20.5H22.25Z" fill="#4187BF" stroke="#59B5FF" stroke-width="2.5"/>
</svg>
