<svg width="64" height="60" viewBox="0 0 64 60" fill="none" xmlns="http://www.w3.org/2000/svg">
<g clip-path="url(#clip0_3_60)">
<path d="M25.9693 0.194386C24.7959 0.453564 24.2801 0.777538 23.1841 1.91793C22.4878 2.65659 22.1396 3.13607 21.9462 3.64147L21.6883 4.34125L21.121 4.30238C19.9605 4.21166 17.6524 4.89849 16.8916 5.54644C16.7756 5.63715 15.7311 6.36285 14.5706 7.16631C13.0491 8.21598 12.3786 8.76026 12.1981 9.07127C12.0691 9.31749 11.5147 9.87473 10.986 10.3024C10.4573 10.73 9.36131 11.7149 8.54897 12.4924C4.77092 16.121 2.32099 19.9698 1.00577 24.3629C0.876822 24.8294 0.734984 25.2829 0.709195 25.3736C0.670512 25.4644 0.709195 25.5032 0.773667 25.4644C1.00577 25.3218 0.915505 25.8402 0.618935 26.3067C0.270787 26.8769 5.23776e-06 29.0151 0.025794 31.0367L0.0386883 32.4622L0.193421 30.9719C0.528674 27.9266 1.1476 24.9201 1.50865 24.5443C1.6247 24.4406 1.831 23.987 1.98574 23.5594C2.12758 23.1188 2.33389 22.73 2.43704 22.7041C2.64335 22.6393 2.68203 22.4708 1.94705 24.8812C1.04445 27.8229 0.734984 29.7408 0.72209 32.4622C0.72209 35.054 0.902611 36.5961 1.54733 39.2527C1.80522 40.3024 2.05021 40.9892 2.25652 41.2613C2.43704 41.4946 2.57888 41.8056 2.57888 41.9352C2.57888 42.0778 2.64335 42.2592 2.73361 42.3499C2.84966 42.4665 2.84966 42.5443 2.73361 42.6609C2.64335 42.7516 2.63046 42.8812 2.70782 43.0367C2.78519 43.1663 3.09465 43.9568 3.39122 44.7991C3.93279 46.2635 4.46146 47.4298 4.5775 47.4298C4.64198 47.4298 4.31962 46.6393 4.02305 46.0691C3.75227 45.5378 3.59753 44.8121 3.76516 44.8639C3.93279 44.9287 4.24225 45.4989 4.78381 46.7171C5.00302 47.2095 5.20933 47.5594 5.24801 47.4687C5.2738 47.3909 5.11907 46.8985 4.89986 46.3801C4.56461 45.6285 4.51303 45.3693 4.60329 45.0583C4.77092 44.4492 4.95144 44.514 5.2738 45.2916C5.44143 45.6933 5.59616 45.9914 5.63484 45.9654C5.66063 45.9266 5.58326 45.6933 5.46722 45.4341C5.11907 44.7214 5.37696 44.7084 5.99588 45.4212L6.57613 46.0691L6.33114 45.3564C6.20219 44.9676 5.82826 43.9698 5.5059 43.1404C4.8096 41.365 4.47435 40.121 4.53882 39.6285C4.5775 39.4341 4.55172 39.3045 4.48724 39.3434C4.40988 39.3953 4.48724 38.6307 4.5775 38.514C4.61619 38.4622 5.35117 40.5745 5.7251 41.8575C6.09904 43.0886 6.31824 43.5292 6.31824 43.0497C6.31824 42.8942 6.38272 42.7646 6.44719 42.7646C6.61481 42.7646 6.61481 43.2829 6.44719 43.5421C6.33114 43.7106 6.30535 43.7106 6.17641 43.5421C6.06036 43.3866 6.04746 43.3996 6.12483 43.6069C6.17641 43.7495 6.26667 44.0216 6.31824 44.216C6.47298 44.7084 7.09191 45.8359 7.86557 46.9762C9.55473 49.4903 11.8628 51.9784 14.042 53.6242C15.4475 54.6868 15.7956 54.6868 16.0406 53.5853C16.118 53.2354 16.1051 53.2225 15.9503 53.4168C15.744 53.676 15.6022 53.5983 15.6022 53.2354C15.6022 53.041 15.5377 53.0151 15.2798 53.0799C15.009 53.1447 14.9575 53.1188 14.9575 52.8855C14.9575 52.7041 14.7383 52.4579 14.3127 52.1469L13.6809 51.6933L13.9517 51.0194C14.0935 50.6436 14.2225 50.2678 14.2225 50.1771C14.2225 50.0994 14.2483 50.0475 14.287 50.0734C14.3127 50.1123 14.6609 49.9309 15.0477 49.6717C16.2211 48.9201 17.0206 48.5961 17.7298 48.5961C18.2971 48.5961 18.5034 48.6868 19.4576 49.3089C20.3473 49.892 20.6439 50.0216 21.0952 50.0216C21.482 50.0216 21.7399 50.1123 21.972 50.3067C22.3717 50.6825 23.0809 52.6782 23.0809 53.4557C23.0809 53.9741 23.0551 54.0259 22.6038 54.2073C22.1654 54.3888 22.0881 54.3758 21.8946 54.1944C21.6754 54.013 21.6625 54.0259 21.6625 54.4017C21.6625 54.7516 21.5852 54.8423 21.1983 55.0108C20.7341 55.2052 20.2442 55.1015 20.2442 54.8164C20.2442 54.7387 20.141 54.7905 19.9992 54.933C19.8702 55.0626 19.6897 55.1922 19.5994 55.2311C19.4705 55.27 19.4834 55.3737 19.651 55.6847C19.7671 55.9179 19.8573 56.3585 19.8573 56.6695C19.8573 57.0842 19.9218 57.2786 20.0636 57.3305C20.2571 57.4082 20.2699 57.3175 20.2055 56.5918C20.1281 55.7365 20.2184 55.4255 20.5149 55.4903C20.7599 55.5421 20.8889 56.1901 20.7857 56.8251L20.7084 57.3434L20.6181 56.8899L20.5407 56.4363L20.5149 56.9676L20.502 57.5119L21.8302 57.9784C27.1555 59.8704 32.6872 60.2333 38.3607 59.0799C40.8622 58.5616 46.2134 56.54 45.8266 56.2678C45.6461 56.1382 45.6203 55.8531 45.7879 55.892C45.9942 55.9309 46.1876 55.2311 45.9942 55.1663C45.9039 55.1274 45.6203 55.3089 45.3624 55.568C44.924 55.9827 44.4856 56.0734 44.4856 55.7495C44.4856 55.6847 45.0013 55.2959 45.6461 54.8942C46.2779 54.4795 47.3094 53.7538 47.9284 53.2743C49.2436 52.2505 52.1964 49.3477 52.4801 48.8164C52.5832 48.6091 52.8024 48.2981 52.9572 48.1296C53.1248 47.9482 53.2408 47.7667 53.2408 47.7149C53.2022 47.4557 53.2795 47.3002 53.4471 47.3002C53.5503 47.3002 53.6406 47.365 53.6406 47.4428C53.6406 47.5076 53.5761 47.5335 53.4858 47.4816C53.3956 47.4298 53.3827 47.4428 53.4342 47.5335C53.5374 47.7149 51.8998 50.6695 51.1777 51.5767C50.8941 51.9395 50.7006 52.2894 50.7393 52.3672C50.7909 52.432 50.7522 52.4708 50.6491 52.4579C50.5588 52.432 50.4943 52.4968 50.5072 52.5745C50.533 52.6652 50.5072 52.73 50.4428 52.7171C50.2364 52.6393 49.3854 53.4298 49.437 53.6372C49.4886 53.7667 49.3209 53.9741 48.9728 54.2333C48.6762 54.4406 48.1089 54.9201 47.7092 55.2829C47.3094 55.6458 46.4068 56.2678 45.6976 56.6695C45.0013 57.0583 44.2793 57.5508 44.0987 57.7451C43.7635 58.108 43.9698 58.0562 44.4211 57.6544C44.5629 57.5248 44.9884 57.3045 45.3495 57.162C46.2392 56.8121 47.4513 56.203 48.457 55.581C49.0502 55.2181 49.4241 55.0756 49.798 55.0756C50.2622 55.0756 50.3009 55.1015 50.2107 55.3607C50.1333 55.6328 50.1462 55.6328 50.7135 55.2959C51.0359 55.1015 51.4485 54.946 51.629 54.946C51.8869 54.946 51.9643 54.8812 51.9643 54.6739C51.9643 54.4924 52.3511 53.987 52.9701 53.3391C56.9802 49.1274 59.572 43.5032 60.3972 37.1922C60.7969 34.1469 60.8743 33.3305 60.9259 31.4903C60.9903 29.2743 60.9001 28.6134 59.8814 24.635C59.4301 22.8467 59.2238 21.8229 59.3141 21.7711C59.5075 21.6544 58.592 19.3996 58.0762 18.7127C57.7668 18.311 57.6507 18.0518 57.7023 17.8445C57.8312 17.3002 55.8971 14.3326 53.6535 11.6112C53.1893 11.054 52.8024 10.5616 52.8024 10.5097C52.8024 10.3153 50.8554 8.55292 50.6362 8.55292C50.3009 8.55292 49.9012 8.31965 49.9012 8.11231C49.9012 7.85313 49.3983 7.4514 48.5473 7.02376C48.1089 6.80346 47.6834 6.49244 47.5931 6.31102C47.4899 6.11663 47.1805 5.89633 46.8452 5.76674C46.5358 5.65011 46.1876 5.40389 46.0716 5.23542C45.9684 5.06696 45.7492 4.9244 45.5945 4.9244C45.1045 4.9244 44.3695 4.66523 44.0085 4.35421C43.8151 4.18575 43.583 4.08207 43.4927 4.10799C43.4153 4.13391 43.1188 4.0432 42.848 3.9136C41.9969 3.473 40.0757 2.88985 39.302 2.82505C38.8894 2.78617 38.5799 2.78617 38.5928 2.8121C38.7476 2.95464 40.9912 3.62851 41.3393 3.62851C41.5714 3.62851 42.0872 3.80994 42.4998 4.03024C42.9253 4.2635 43.8408 4.73002 44.55 5.07991C45.7492 5.67603 46.5487 6.24622 46.5487 6.5054C46.5487 6.57019 46.381 6.53132 46.1747 6.41469C45.891 6.27214 45.7879 6.25918 45.7492 6.37581C45.6847 6.55724 44.8079 6.05183 44.7048 5.76674C44.6532 5.66307 44.3824 5.52052 44.0858 5.44276C43.7893 5.35205 42.9124 4.96328 42.1517 4.57451C41.3909 4.18575 40.6817 3.88769 40.5915 3.9136C40.5012 3.95248 41.0041 4.27646 41.7133 4.62635C42.4225 4.9892 43.1188 5.40389 43.2477 5.55939C43.3895 5.70194 43.6216 5.83153 43.7635 5.83153C44.3179 5.84449 48.6118 9.05832 48.6118 9.473C48.6118 9.68035 48.3797 9.60259 47.9799 9.2527C47.7607 9.07127 47.5802 8.94168 47.5802 8.98056C47.5802 9.00648 48.1218 9.49892 48.7665 10.0562C50.6233 11.6371 52.003 13.1015 52.8024 14.3197C53.215 14.9287 53.5116 15.473 53.46 15.5119C53.4214 15.5637 53.3698 15.5637 53.344 15.5378C51.629 13.3089 50.417 12 49.6949 11.6242C49.4886 11.5076 49.0631 11.1577 48.7407 10.8207C48.4183 10.4838 47.9928 10.1339 47.7736 10.0302L47.3868 9.83585L47.7607 10.1469C47.967 10.3283 48.1089 10.5356 48.0831 10.6134C48.0444 10.7041 47.3352 10.2635 46.4842 9.62851C45.6332 9.00648 44.4985 8.22894 43.9569 7.89201C42.9769 7.28294 40.8751 6.16846 40.8751 6.27214C40.8751 6.29806 41.5972 6.71274 42.4869 7.19223C43.9698 7.99568 45.1174 8.92873 44.7821 9.0324C44.7048 9.05832 44.1374 8.78618 43.5056 8.41037C41.623 7.32182 39.8823 6.47948 40.7204 7.07559C41.0299 7.29589 41.0943 7.5162 40.8365 7.5162C40.7462 7.5162 40.2562 7.30886 39.7275 7.06263C39.2118 6.81641 38.7347 6.60907 38.6573 6.60907C38.5928 6.60907 38.1286 6.42765 37.6387 6.20734C37.1358 6 36.6587 5.84449 36.5813 5.88337C36.4653 5.92225 36.4782 5.94816 36.5942 5.94816C36.981 5.97408 38.1931 6.66091 38.2834 6.89417C38.3736 7.15335 38.8765 7.49028 42.0872 9.44708C42.8351 9.91361 43.8151 10.6264 44.2793 11.041C44.7306 11.4557 45.1561 11.7927 45.2334 11.7927C45.2979 11.7927 45.4526 11.9093 45.5816 12.0518C46.0587 12.5832 45.414 12.324 44.3308 11.5464C42.1775 10.0302 40.5012 9.20086 39.1344 9.00648C38.7734 8.95464 38.5155 8.94168 38.5542 8.9676C38.5928 9.00648 39.1473 9.35637 39.7791 9.7581C40.4238 10.1469 41.4296 10.8337 42.0227 11.2613C42.6159 11.7019 43.1574 12.0518 43.2219 12.0518C43.2864 12.0518 43.8924 12.4017 44.5629 12.8294C47.5415 14.7214 49.9012 16.9503 51.7193 19.6199C54.0919 23.0799 55.4458 26.7214 55.91 30.8812C56.026 31.892 55.9744 35.5983 55.8455 36.3629C55.7681 36.7905 55.6779 37.3348 55.6392 37.581C55.4845 38.527 55.0718 40.1469 54.7366 41.0799C54.324 42.2333 53.1764 44.7603 52.8669 45.2268C52.738 45.4082 52.5059 45.784 52.3511 46.0691C51.9643 46.7689 50.4557 48.7646 49.6433 49.6328C49.2823 50.0216 48.9083 50.5011 48.8052 50.6955C48.702 50.8899 48.5086 51.0713 48.3668 51.1231C48.0702 51.2138 47.8639 51.3953 46.2779 52.9114C45.5945 53.5724 44.8337 54.2073 44.6016 54.3369C44.1761 54.5702 44.1761 54.5572 44.679 54.1426C44.9627 53.9093 45.4011 53.5205 45.6461 53.2743L46.0974 52.8337L45.6461 53.1577C45.4011 53.3391 44.924 53.6372 44.5758 53.8315L43.9698 54.1944L43.6345 53.4428C42.7835 51.473 42.2419 50.7084 41.3651 50.2678L40.8622 50.0086L41.2749 49.7235C41.507 49.568 41.9841 49.0238 42.3322 48.5313C42.6932 48.0259 43.0414 47.5983 43.1188 47.5724C43.4669 47.4428 45.5558 45.1102 45.8008 44.5788C45.9426 44.2549 46.2005 43.6976 46.3552 43.3477C46.5229 42.9849 46.8194 42.1685 47.0129 41.5076L47.361 40.3283L47.0902 39.9784C46.9355 39.784 46.7808 39.4212 46.7292 39.149C46.6518 38.6566 46.1103 37.5032 45.5171 36.5443C45.2979 36.2073 45.0916 35.6112 45.0013 35.1188C44.795 33.8618 44.5242 33.149 43.9569 32.2678C42.6546 30.2333 41.3522 27.2916 40.6301 24.6998C40.3336 23.6242 40.0241 22.6393 39.9467 22.4968C39.7146 22.0302 39.1473 21.4989 38.6831 21.3045C37.6773 20.8639 35.15 20.1253 32.8162 19.5551C32.0425 19.3736 31.5396 19.1793 31.3333 18.9719L30.9981 18.6609L31.1141 19.8013C31.1786 20.4233 31.1915 21.2527 31.1657 21.6674C31.127 22.0691 31.1528 22.4449 31.2044 22.5097C31.3333 22.6393 31.733 25.5032 31.7588 26.4622C31.7717 26.8639 31.8233 27.162 31.8878 27.1231C31.9393 27.0972 31.9909 27.2268 31.9909 27.4341C32.0167 27.7581 32.0167 27.7581 32.0941 27.3434L32.1843 26.8899L32.2746 27.2786C32.6356 28.8855 32.8033 31.4903 32.6743 33.4082C32.5712 34.8985 32.5712 34.9114 32.4551 34.2117C32.0296 31.594 31.7717 30.5443 30.8691 27.8618C30.0955 25.5551 29.9278 24.5313 30.3662 24.6998C30.4565 24.7387 30.5983 24.6479 30.6757 24.5054C30.882 24.1296 30.8433 24.013 30.6112 24.311C30.4178 24.5572 30.4178 24.5443 30.4952 24.2721C30.5983 23.8834 30.3533 23.0281 30.0568 22.7559C29.9149 22.6264 29.541 22.4579 29.2315 22.3801L28.6513 22.2246L29.4249 21.2527C30.4694 19.9568 30.8562 19.1015 30.7531 18.3629C30.6499 17.689 30.8433 17.1577 31.5009 16.2894C32.1972 15.3823 33.6285 12.2851 33.809 11.3261C33.938 10.6264 33.9251 10.4708 33.7446 10.1857C33.4738 9.77106 33.4738 9.48596 33.7446 8.57883C34.0282 7.59395 34.0669 4.12095 33.7961 3.62851C33.6285 3.31749 33.0869 2.70842 31.8491 1.42548C31.1915 0.738659 30.2631 0.388767 28.4579 0.142548C27.22 -0.0259171 26.9621 -0.0259171 25.9693 0.194386ZM24.0351 4.47084C23.9706 4.63931 24.0093 4.63931 24.4219 4.47084C24.6927 4.35421 25.0795 4.30238 25.3116 4.32829C25.5437 4.36717 25.9564 4.43196 26.24 4.47084C26.5108 4.50972 26.7816 4.58747 26.8203 4.63931C26.8848 4.73002 27.22 4.78186 28.0195 4.82074C28.2773 4.82074 28.4965 4.88553 28.4965 4.95033C28.4965 5.00216 28.6255 5.054 28.7931 5.054C28.9479 5.054 29.2315 5.13175 29.4249 5.23542C29.6828 5.36501 29.786 5.37797 29.8247 5.2743C29.9278 4.97624 30.0439 5.2743 30.0697 5.90929C30.0955 6.37581 30.0697 6.53132 29.9407 6.5054C29.8118 6.47948 29.8118 6.53132 29.9149 6.7257C29.9794 6.86825 30.0568 7.15335 30.0568 7.34773C30.0697 7.54212 30.1341 7.85313 30.2115 8.00864C30.3404 8.26782 30.3147 8.34557 30.0439 8.56588C29.8634 8.69547 29.6055 8.8121 29.4507 8.8121C29.3089 8.8121 29.051 8.95464 28.8834 9.13607C28.7158 9.31749 28.4965 9.46004 28.4063 9.46004C28.2645 9.46004 28.2516 9.69331 28.3031 10.5875C28.3418 11.2225 28.4063 12 28.445 12.324C28.5094 12.8683 28.4837 12.946 28.1484 13.2181C27.8003 13.4903 27.8003 13.5032 28.0324 13.6847C28.3031 13.8791 28.445 14.5788 28.2387 14.7084C28.1613 14.7603 27.581 14.8121 26.9363 14.838C26.2916 14.8639 25.6727 14.9676 25.5695 15.0454C25.2859 15.2916 25.6082 15.4082 26.2014 15.2657C26.5495 15.1879 26.8719 15.2009 27.1555 15.2916C27.3876 15.3693 27.7358 15.46 27.9421 15.4989C28.445 15.5896 28.445 15.6415 27.955 15.7451C27.0137 15.9654 26.6656 16.5356 27.5424 16.432C28.0968 16.3672 28.4321 16.6911 28.316 17.1706C28.2645 17.3521 28.1742 17.4946 28.1097 17.4946C28.0324 17.4946 27.8647 17.6112 27.7229 17.7538C27.5682 17.9093 27.4005 17.987 27.3232 17.9352C27.1426 17.8315 26.4206 18.1425 26.5108 18.2851C26.5495 18.3499 26.6656 18.4017 26.7816 18.4017C27.1169 18.4017 27.5939 18.933 27.5939 19.2959C27.5939 19.4773 27.6842 19.8013 27.7874 20.0086C28.0452 20.5011 28.0324 20.7732 27.7358 21.0454C27.4005 21.3564 27.0008 21.2397 25.9048 20.514C24.1254 19.3218 24.1898 19.4514 26.0466 20.8251C26.7171 21.3175 27.349 21.8229 27.4392 21.9266C27.581 22.108 27.4908 22.2894 26.8332 23.1577C26.3948 23.7149 26.0466 24.2073 26.0466 24.2462C26.0466 24.2851 26.2271 24.324 26.4335 24.3369C26.6527 24.3369 26.7945 24.2981 26.7558 24.2333C26.6656 24.0778 27.3747 23.9741 27.5553 24.1296C27.6455 24.1944 27.7745 24.2203 27.8518 24.1685C27.9292 24.1166 27.9679 24.1555 27.955 24.2462C27.9292 24.3369 28.2129 24.5702 28.561 24.7775C28.9221 24.9719 29.1542 25.1404 29.1026 25.1404C29.0381 25.1404 28.8834 25.0886 28.7544 25.0108C28.561 24.9071 28.4837 24.959 28.2902 25.3736C27.9034 26.203 27.8647 27.6285 28.1742 30.1944C28.3031 31.1922 28.3031 31.8013 28.1871 31.9827C28.1355 32.0734 28.1226 32.3067 28.1742 32.514C28.2129 32.7084 28.2773 33.3693 28.3031 33.9654C28.3418 34.9374 28.3289 35.0151 28.1871 34.6652C28.0968 34.4449 27.8647 33.6674 27.6842 32.9158C27.4908 32.1641 26.8461 30.0778 26.24 28.2635C25.634 26.4622 25.144 24.946 25.144 24.9201C25.144 24.8942 25.2085 24.9071 25.2987 24.959C25.3761 25.0108 25.273 24.7387 25.0538 24.3499C24.8346 23.9611 24.5509 23.3521 24.4219 23.0022C24.293 22.6393 23.8546 21.7063 23.4549 20.9287C23.0422 20.1382 22.6425 19.257 22.5522 18.946C22.462 18.6479 22.3459 18.4017 22.2686 18.4017C22.2041 18.4017 21.9333 18.622 21.6754 18.9071C21.2757 19.3348 21.1081 19.4125 20.5278 19.4773C20.1539 19.5292 19.3673 19.7754 18.7871 20.0346C18.2068 20.2937 17.3816 20.6177 16.9561 20.7603C16.5306 20.8899 15.9503 21.1231 15.6667 21.2527C15.383 21.3952 15.0735 21.5119 14.9833 21.5119C14.648 21.5119 13.0749 22.3153 12.6881 22.6911C12.211 23.1577 12.0176 23.5983 11.5276 25.3348C11.3342 26.0475 10.9473 27.2138 10.6765 27.9266C9.95445 29.8315 9.76104 30.6479 9.95445 30.959C10.0834 31.1793 10.0705 31.27 9.82551 31.5292C9.65788 31.7106 9.45157 32.1253 9.34842 32.4752C9.24527 32.8251 8.9358 33.9266 8.65212 34.9244C8.36845 35.9222 8.13635 36.648 8.11056 36.5443C8.05898 36.1555 8.00741 35.1577 7.95583 33.8488C7.91715 32.7343 7.94293 32.5011 8.11056 32.3974C8.39424 32.2289 8.16214 32.2419 7.85267 32.3974C7.68505 32.4881 7.60768 32.4881 7.60768 32.4104C7.60768 32.3326 7.87846 32.1253 8.22661 31.9438C8.76817 31.6458 8.75528 31.594 8.18793 31.8272C7.94293 31.9309 7.93004 31.4255 8.17503 29.9352C8.4716 28.1857 8.75528 27.0713 9.37421 25.2311C9.68367 24.2981 9.96735 23.365 9.99314 23.1706C10.0189 22.9762 10.1608 22.7041 10.3026 22.5616C10.4315 22.432 10.6636 22.0432 10.8184 21.7192C10.9602 21.3823 11.1665 21.0842 11.2697 21.0454C11.3857 21.0065 11.5534 20.8121 11.6436 20.6177C11.966 19.9698 13.6809 17.7538 13.8357 17.7927C13.9259 17.8056 13.9775 17.7408 13.9517 17.6371C13.8872 17.3391 16.5564 14.838 18.1166 13.7365C18.8774 13.1922 20.876 11.9741 21.1339 11.8963C21.2757 11.8575 21.3015 11.5594 21.2886 10.5486C21.2628 9.48596 21.3015 9.21382 21.4691 9.07127C21.6367 8.92873 21.7141 8.92873 21.8946 9.12311C22.0107 9.23974 22.1783 9.55075 22.2557 9.8229C22.3846 10.2894 22.3975 10.2765 22.4878 9.23974C22.5522 8.65659 22.5522 8.12527 22.5136 8.04752C22.4233 7.90497 22.5909 7.5162 22.8617 7.2311C22.9649 7.14039 23.1712 6.62203 23.3259 6.09071C23.4935 5.55939 23.6998 5.02808 23.803 4.91145C23.9062 4.79482 23.9448 4.67818 23.9062 4.62635C23.8675 4.58747 23.8675 4.49676 23.9191 4.41901C24.0351 4.21166 24.1125 4.25054 24.0351 4.47084ZM30.4694 9.68035C30.3791 9.70626 30.2244 9.70626 30.147 9.68035C30.0568 9.64147 30.1212 9.61555 30.3018 9.61555C30.4823 9.61555 30.5468 9.64147 30.4694 9.68035ZM30.0439 10.3801C30.0439 10.4579 29.9923 10.4708 29.9149 10.432C29.8505 10.3931 29.786 10.2894 29.786 10.2246C29.786 10.1469 29.8505 10.1339 29.9149 10.1728C29.9923 10.2117 30.0439 10.3153 30.0439 10.3801ZM30.7531 11.4557C30.9723 11.4687 31.2559 11.4946 31.4107 11.5076C31.6041 11.5335 31.6686 11.6112 31.6428 11.8186C31.6299 11.987 31.6041 12.1555 31.6041 12.2073C31.5912 12.2721 31.5138 12.311 31.4236 12.311C31.3333 12.311 31.1528 12.5443 31.0238 12.8294C30.8949 13.1145 30.7402 13.3477 30.6628 13.3477C30.5854 13.3477 30.5596 13.4644 30.5983 13.6069C30.637 13.7495 30.6112 13.8661 30.5339 13.8661C30.4694 13.8661 30.4565 13.9179 30.4952 13.9957C30.5339 14.0605 30.4823 14.1253 30.3791 14.1253C30.1212 14.1253 29.9665 13.6069 30.1857 13.4644C30.3404 13.3607 30.3275 13.3089 30.1599 13.1793C29.8247 12.9201 29.657 12.4924 29.657 11.8445C29.657 11.2484 29.657 11.2484 30.0181 11.3261C30.2115 11.378 30.5468 11.4298 30.7531 11.4557ZM27.9808 23.4557C28.2258 23.5983 28.3805 23.7019 28.3031 23.7019C28.2387 23.7019 27.9679 23.5983 27.7229 23.4557C27.4779 23.3132 27.3361 23.2095 27.4005 23.2095C27.4779 23.2095 27.7358 23.3132 27.9808 23.4557ZM28.4965 23.3261C28.5997 23.3909 28.6384 23.4557 28.561 23.4557C28.4965 23.4557 28.3418 23.3909 28.2387 23.3261C28.1355 23.2613 28.1097 23.1965 28.1742 23.1965C28.2516 23.1965 28.3934 23.2613 28.4965 23.3261ZM27.0266 23.7279C27.2716 24.013 27.2716 24.013 26.9879 23.8575C26.8203 23.7797 26.6913 23.6501 26.6913 23.5853C26.6913 23.3909 26.7558 23.4298 27.0266 23.7279ZM28.4965 24.0389C28.6771 24.1426 28.7673 24.2203 28.69 24.2203C28.6255 24.2203 28.4192 24.1426 28.2387 24.0389C28.0581 23.9352 27.9808 23.8575 28.0452 23.8575C28.1226 23.8575 28.316 23.9352 28.4965 24.0389ZM28.69 24.5961C28.6513 24.635 28.5481 24.5961 28.4579 24.5054C28.3418 24.3758 28.3547 24.3629 28.5352 24.4406C28.6642 24.4795 28.7286 24.5572 28.69 24.5961ZM28.5352 25.3348C28.4965 25.4514 28.4321 25.5162 28.4063 25.4773C28.3676 25.4384 28.3805 25.3607 28.4321 25.2829C28.5481 25.0756 28.6255 25.1145 28.5352 25.3348ZM28.7802 26.0734C28.69 26.1641 28.6255 26.2937 28.6255 26.3585C28.6384 26.4363 28.7415 26.3715 28.8834 26.203L29.1155 25.9179L29.0897 26.3585C29.0639 26.6307 28.9092 26.9287 28.69 27.162L28.3289 27.5378L28.6771 27.0454C29.0639 26.514 29.051 26.2289 28.6642 26.6436C28.5352 26.7862 28.4708 26.838 28.5352 26.7732C28.69 26.5659 28.6384 26.3974 28.4579 26.54C28.3289 26.6566 28.2902 26.6177 28.3031 26.3715C28.3031 26.203 28.3547 26.0216 28.4063 25.9698C28.4579 25.905 28.4708 25.9698 28.4321 26.1123C28.3547 26.3585 28.3676 26.3456 28.5868 26.0994C28.7158 25.9438 28.8447 25.8402 28.8705 25.8661C28.9092 25.892 28.8576 25.9957 28.7802 26.0734ZM28.7286 27.7322C28.6384 27.8618 28.5481 27.9654 28.5352 27.9395C28.4579 27.8618 28.6513 27.473 28.7673 27.473C28.8318 27.473 28.8189 27.5896 28.7286 27.7322ZM6.4085 28.7948C6.33114 29.4168 6.12483 29.6631 5.90562 29.4428C5.78957 29.3261 5.80247 29.2873 5.9701 29.2873C6.08614 29.2873 6.1893 29.1836 6.20219 29.054C6.20219 28.9374 6.22798 28.7041 6.26667 28.5356C6.29245 28.3801 6.25377 28.2505 6.1893 28.2505C6.11193 28.2505 6.06036 28.432 6.06036 28.6523C6.06036 28.8855 6.00878 29.0151 5.93141 28.9633C5.78957 28.8726 5.89273 28.2765 6.09904 28.0173C6.31824 27.7451 6.48587 28.1857 6.4085 28.7948ZM38.5284 29.3132C38.5026 29.4039 37.845 29.689 37.0584 29.9611C34.7761 30.7257 34.7503 30.5443 37.0068 29.6631C38.3478 29.1318 38.6057 29.0799 38.5284 29.3132ZM38.4381 36.5832C38.6186 36.946 38.9539 37.6069 39.1731 38.0346C39.5341 38.7343 39.9596 40.3801 40.0112 41.3391C40.037 41.6501 39.9983 41.6631 39.1989 41.7408L38.3607 41.8186L39.1086 41.8315C39.7533 41.8575 39.8565 41.8963 39.8178 42.0778C39.792 42.2203 39.6373 42.324 39.4052 42.3499C39.1215 42.3888 39.0699 42.4276 39.1989 42.5054C39.3536 42.5961 39.3407 42.635 39.1344 42.7127C38.9926 42.7775 38.7605 42.9201 38.6315 43.0497C38.3092 43.3477 37.9868 43.3607 38.09 43.0756C38.1286 42.959 38.1673 42.7646 38.1673 42.622C38.1673 42.4276 38.2705 42.3758 38.5928 42.3629L39.0055 42.3499L38.6315 42.2592L38.2576 42.1814L38.2834 40.8855C38.3092 39.7581 38.0384 37.0497 37.8192 36.1814C37.6902 35.6242 38.1029 35.8834 38.4381 36.5832ZM6.08614 39.2009C6.15062 39.473 6.16351 39.7322 6.11193 39.7711C5.98299 39.9136 5.67353 39.3564 5.67353 38.9676C5.67353 38.4363 5.9701 38.5918 6.08614 39.2009ZM6.57613 40.4579C6.57613 40.5356 6.48587 40.5227 6.38272 40.432C6.12483 40.2246 6.13772 40.3542 6.39561 40.6134C6.56324 40.7948 6.56324 40.8207 6.4085 40.8207C6.21509 40.8207 6.02167 40.3413 6.13772 40.1469C6.22798 40.0173 6.57613 40.2765 6.57613 40.4579ZM6.75665 41.4816C6.8727 42.0648 6.84691 42.5054 6.71797 42.5054C6.57613 42.5054 6.44719 42.0389 6.44719 41.4946C6.44719 40.9633 6.6535 40.9503 6.75665 41.4816ZM34.8793 43.9309C35.0211 43.9957 35.0598 44.0475 34.9824 44.0475C34.8922 44.0605 34.8148 44.1123 34.8148 44.1901C34.8148 44.2678 34.9308 44.2549 35.1243 44.1771C35.3821 44.0475 35.4853 44.0734 35.7303 44.3067C36.0011 44.5529 36.0011 44.5918 35.8077 44.8121C35.6013 45.0324 35.6013 45.0842 35.7948 45.46C36.13 46.1598 36.014 46.3024 34.8793 46.6004C34.3119 46.743 33.7188 46.9374 33.564 47.0151C33.4093 47.1058 33.1772 47.1706 33.0354 47.1706C32.7517 47.1706 32.4035 47.5205 32.5454 47.6501C32.7517 47.8575 33.5254 47.7019 34.4409 47.2613C35.4982 46.743 36.0913 46.6652 36.4137 46.9892C36.6458 47.2225 36.6458 47.2095 36.5426 47.4946C36.4395 47.7408 35.7561 48.1166 35.5369 48.0389C35.4466 48 34.9437 48.0648 34.4151 48.1685C33.8864 48.2721 33.1514 48.3888 32.7904 48.4276C32.0683 48.4924 32.0296 48.4536 32.0812 47.689C32.0812 47.5724 31.8749 47.378 31.617 47.2354C31.0883 46.9503 30.9723 46.6523 31.2688 46.3542C31.5267 46.095 31.5138 46.0432 31.2044 45.9654C30.8304 45.8747 30.882 45.5119 31.3075 45.3305C31.5009 45.2397 31.7846 45.0583 31.9393 44.9158C32.3004 44.6048 34.0153 43.8272 34.3635 43.8272C34.5053 43.8143 34.7374 43.8661 34.8793 43.9309ZM39.3407 44.2678C40.3336 44.9546 41.1201 46.2765 41.2233 47.4557C41.2878 48.1037 41.262 48.2073 41.0814 48.2073C40.9654 48.2073 40.6559 48.4276 40.4109 48.6868L39.9596 49.1793L40.2304 48.7127C40.4883 48.2462 40.4883 48.2203 40.282 47.365C40.037 46.406 39.2247 45.0583 38.6831 44.7214L38.3607 44.527L38.6186 44.838C38.7605 45.0065 38.8249 45.1102 38.7476 45.0713C38.6831 45.0324 38.3865 44.8899 38.1157 44.7603C37.6902 44.5659 37.6515 44.514 37.8579 44.4363C38.0255 44.3715 37.9223 44.3326 37.5226 44.3197L36.9424 44.2937L37.5871 44.0605C38.3349 43.7754 38.696 43.8272 39.3407 44.2678ZM5.64774 44.3845C5.60905 44.4233 5.53169 44.3585 5.493 44.2289C5.41564 44.0475 5.42853 44.0346 5.55748 44.1512C5.64774 44.2419 5.68642 44.3456 5.64774 44.3845ZM36.8908 48.648C36.7489 48.8035 35.885 49.0238 34.789 49.1663C34.4022 49.2181 34.299 49.1793 34.299 49.0238C34.299 48.8553 34.2474 48.8812 34.054 49.1015C33.9122 49.257 33.6285 49.4125 33.3964 49.4384C33.0612 49.4903 32.9838 49.4384 32.8677 49.1533C32.8033 48.9719 32.7646 48.8035 32.7904 48.7775C32.8162 48.7516 33.1514 48.6998 33.5382 48.6739C33.9251 48.648 34.3248 48.5832 34.428 48.5572C34.5311 48.5184 35.1114 48.4536 35.7045 48.4147C36.3105 48.3758 36.8263 48.2981 36.865 48.2592C37.0068 48.1166 37.0326 48.4795 36.8908 48.648ZM36.7103 49.0626C36.6716 49.1015 36.5555 49.1145 36.4653 49.0756C36.3621 49.0367 36.4008 48.9978 36.5426 48.9978C36.6845 48.9849 36.7618 49.0238 36.7103 49.0626ZM37.0713 49.6199C37.11 49.6847 36.8392 49.8531 36.4782 49.9957C35.8592 50.2289 35.769 50.2289 35.0985 50.0346L34.3893 49.8402L34.7632 49.6717C35.2016 49.4903 36.9553 49.4514 37.0713 49.6199ZM34.0153 50.7343C33.8735 50.838 32.3391 51.1879 32.0296 51.1879C31.6815 51.1749 31.6686 51.162 31.9136 51.0194C32.1843 50.851 32.2488 50.54 32.0425 50.3845C31.8749 50.2678 32.1714 50.1641 32.8806 50.1253C33.3448 50.0994 33.5125 50.1512 33.7575 50.3974C33.9251 50.5659 34.0411 50.7084 34.0153 50.7343ZM33.1772 51.2786C33.2159 51.3434 32.9709 51.3953 32.6485 51.4082C32.1328 51.4212 32.0941 51.4082 32.4293 51.3175C32.958 51.1749 33.1127 51.1749 33.1772 51.2786ZM24.1511 53.0799C24.2543 53.1836 24.1125 53.5205 23.9706 53.5205C23.9062 53.5205 23.8546 53.4039 23.8546 53.2613C23.8546 53.0151 23.9964 52.9244 24.1511 53.0799ZM15.383 53.8445C15.138 54.1555 14.9575 54.1555 14.9575 53.8445C14.9575 53.6372 15.3443 53.378 15.499 53.4687C15.5635 53.5076 15.499 53.676 15.383 53.8445ZM24.2414 54.4665C24.2414 54.8942 23.9448 55.1274 23.5322 55.0238C23.068 54.9071 23.0293 54.6998 23.3388 53.987L23.5967 53.365L23.9191 53.7538C24.0996 53.9741 24.2414 54.2851 24.2414 54.4665ZM21.3273 55.5421C21.4562 55.8661 21.4175 57.3823 21.2886 57.473C21.2112 57.5119 21.121 57.3305 21.0823 57.0583C21.0436 56.7862 20.9791 56.4104 20.9533 56.2289C20.8502 55.581 21.1468 55.0497 21.3273 55.5421ZM29.9407 59.1188C29.8505 59.2095 29.786 59.2225 29.786 59.1447C29.786 58.9633 29.9407 58.8078 30.031 58.8985C30.0568 58.9374 30.0181 59.041 29.9407 59.1188ZM32.107 59.4039C32.107 59.4428 32.0554 59.5076 31.978 59.5464C31.9136 59.5853 31.8491 59.5594 31.8491 59.4946C31.8491 59.4169 31.9136 59.3521 31.978 59.3521C32.0554 59.3521 32.107 59.378 32.107 59.4039Z" fill="white"/>
<path d="M24.409 8.29373C24.2414 8.35853 24.1125 8.4622 24.1125 8.52699C24.1125 8.70842 24.7701 8.95464 25.0151 8.87689C25.144 8.83801 25.4793 8.9028 25.75 9.01944C26.1111 9.17494 26.1756 9.2527 26.0079 9.29157C25.8919 9.33045 25.8145 9.4082 25.8532 9.473C25.9048 9.53779 25.6985 9.58963 25.4148 9.58963C24.9119 9.58963 24.2414 9.80993 24.2414 9.96544C24.2414 10.0821 24.7959 10.0432 25.0022 9.9136C25.1182 9.84881 25.2214 9.88769 25.2987 10.0302C25.3632 10.1469 25.505 10.2376 25.5953 10.2376C25.6985 10.2376 25.7887 10.3283 25.7887 10.432C25.7887 10.5616 25.9177 10.6263 26.1756 10.6263C26.485 10.6263 26.6011 10.5486 26.6913 10.2894C26.859 9.84881 26.859 9.77105 26.614 9.52483C26.3045 9.22678 26.4721 9.14902 26.9363 9.39524C27.3103 9.58963 27.3489 9.57667 27.4263 9.38229C27.5295 9.09719 27.22 8.87689 26.3174 8.60475C25.8661 8.47516 25.4019 8.42332 25.028 8.47516C24.4735 8.55291 24.4477 8.53995 24.6798 8.35853C24.9635 8.13823 24.8474 8.11231 24.409 8.29373Z" fill="white"/>
<path d="M21.5336 9.68034C21.5336 9.95248 21.5723 9.99136 21.6496 9.86177C21.7141 9.7581 21.7399 9.60259 21.7012 9.49892C21.5981 9.22678 21.5336 9.30453 21.5336 9.68034Z" fill="white"/>
<path d="M21.7786 10.7171C21.5852 11.2225 21.8431 11.3909 22.088 10.8985C22.1912 10.6911 22.2428 10.4838 22.2041 10.4449C22.0494 10.2894 21.9075 10.3801 21.7786 10.7171Z" fill="white"/>
<path d="M26.9363 13.2181C26.6784 13.3866 26.8719 13.5032 27.2071 13.3737C27.4392 13.2829 27.465 13.2441 27.3103 13.1922C27.2071 13.1404 27.0395 13.1663 26.9363 13.2181Z" fill="white"/>
<path d="M22.9778 17.7538C22.9778 18 23.0035 18.1037 23.0422 17.9741C23.068 17.8575 23.068 17.6501 23.0422 17.5205C23.0035 17.4039 22.9778 17.5076 22.9778 17.7538Z" fill="white"/>
<path d="M25.6211 24.6609C25.5824 24.7646 25.634 24.8423 25.7243 24.8423C25.8145 24.8423 25.8661 24.7646 25.8274 24.6609C25.7887 24.5702 25.75 24.4924 25.7243 24.4924C25.6985 24.4924 25.6598 24.5702 25.6211 24.6609Z" fill="white"/>
<path d="M5.81536 39.0842C5.81536 39.2268 5.85405 39.2657 5.89273 39.162C5.93141 39.0713 5.91852 38.9546 5.87984 38.9158C5.84115 38.8639 5.80247 38.9417 5.81536 39.0842Z" fill="white"/>
<path d="M32.9838 45.0713C32.958 45.3045 32.8291 45.473 32.5583 45.6026C32.352 45.7063 32.1585 45.8359 32.1328 45.9007C32.107 45.9525 31.9651 46.0043 31.8104 46.0043C31.617 46.0043 31.5783 46.0432 31.6815 46.1469C31.7717 46.2376 32.0554 46.2117 32.6356 46.0691C33.6414 45.8099 34.3119 45.46 34.5311 45.1102C34.7116 44.7991 34.6601 44.7732 34.2861 44.9806C34.0798 45.0842 33.8993 45.0713 33.5253 44.9158L33.0225 44.7214L32.9838 45.0713Z" fill="white"/>
<path d="M34.7116 7.20518C34.8406 7.33477 34.9695 7.39956 35.0211 7.36069C35.0598 7.30885 34.9566 7.20518 34.789 7.12742C34.5053 6.97192 34.5053 6.97192 34.7116 7.20518Z" fill="white"/>
<path d="M37.9739 9.77105C38.3478 10.0821 39.1602 10.4449 39.2633 10.3412C39.302 10.3153 38.9281 10.095 38.451 9.86177C37.6515 9.473 37.6129 9.473 37.9739 9.77105Z" fill="white"/>
<path d="M0.0644703 11.0151C0.103153 11.0799 0.167625 11.1447 0.206308 11.1447C0.232097 11.1447 0.257886 11.0799 0.257886 11.0151C0.257886 10.9374 0.193414 10.8855 0.116048 10.8855C0.0515759 10.8855 0.0257872 10.9374 0.0644703 11.0151Z" fill="white"/>
<path d="M9.41289 11.0281C9.41289 11.0929 9.47736 11.1188 9.54183 11.0799C9.6192 11.041 9.67077 10.9762 9.67077 10.9374C9.67077 10.9114 9.6192 10.8855 9.54183 10.8855C9.47736 10.8855 9.41289 10.9503 9.41289 11.0281Z" fill="white"/>
<path d="M0 20.3456C0 20.4104 0.0644718 20.4752 0.128944 20.4752C0.20631 20.4752 0.257887 20.4104 0.257887 20.3456C0.257887 20.2678 0.20631 20.216 0.128944 20.216C0.0644718 20.216 0 20.2678 0 20.3456Z" fill="white"/>
<path d="M60.4875 40.2505C60.4875 40.3931 60.5261 40.432 60.5648 40.3283C60.6035 40.2376 60.5906 40.121 60.5519 40.0821C60.5132 40.0302 60.4746 40.108 60.4875 40.2505Z" fill="white"/>
<path d="M5.75089 42.8035C5.78957 42.933 5.86694 42.9978 5.90562 42.959C5.94431 42.9201 5.90562 42.8164 5.81536 42.7257C5.68642 42.6091 5.67352 42.622 5.75089 42.8035Z" fill="white"/>
<path d="M8.36845 49.1793C8.43292 49.3218 8.58765 49.5551 8.7037 49.6976L8.91001 49.9568L8.78107 49.6976C8.71659 49.5551 8.56186 49.3218 8.44581 49.1793L8.2395 48.9201L8.36845 49.1793Z" fill="white"/>
<path d="M19.3415 49.7624C19.5994 49.9309 19.896 49.9309 19.7928 49.7624C19.7542 49.6847 19.5865 49.6328 19.4318 49.6328C19.1997 49.6328 19.1868 49.6587 19.3415 49.7624Z" fill="white"/>
<path d="M16.1437 50.6307C15.8343 50.9417 15.8343 50.9546 16.1179 50.7343C16.6595 50.3067 16.6853 50.2808 16.595 50.2808C16.5435 50.2808 16.35 50.4363 16.1437 50.6307Z" fill="white"/>
<path d="M15.3701 51.3434C15.138 51.5767 15.1767 51.9395 15.4603 52.0821C15.5893 52.1598 15.7311 52.1857 15.7569 52.1469C15.8601 52.0432 15.7053 51.4471 15.5764 51.4471C15.5119 51.4471 15.499 51.3823 15.5377 51.3175C15.6409 51.1361 15.5635 51.149 15.3701 51.3434Z" fill="white"/>
<path d="M10.0576 51.7581C10.0576 51.784 10.1608 51.8877 10.2897 51.9784C10.4831 52.1469 10.496 52.1339 10.3284 51.9266C10.1608 51.7192 10.0576 51.6544 10.0576 51.7581Z" fill="white"/>
<path d="M11.4889 53.2743C14.4546 56.1901 14.8156 56.4881 17.1495 57.8359C17.9876 58.3283 17.3429 57.8488 16.1824 57.1102C15.5506 56.7084 14.9059 56.2549 14.7511 56.0864C14.6093 55.9179 14.1451 55.4644 13.7325 55.0756C13.3199 54.6868 12.5462 53.9352 12.0304 53.4039C11.5147 52.8726 11.0505 52.4838 10.9989 52.5227C10.9602 52.5745 10.7926 52.5097 10.6507 52.3931C10.496 52.2765 10.8828 52.6652 11.4889 53.2743Z" fill="white"/>
<path d="M9.79971 53.4428C9.79971 53.5464 9.73524 53.6501 9.65787 53.676C9.55472 53.7149 9.56761 53.8445 9.70945 54.1296C9.94155 54.5702 10.3155 54.7905 10.3155 54.4924C10.3155 54.2981 10.5734 54.2073 10.5734 54.3888C10.5734 54.4536 10.7023 54.635 10.8442 54.8164C11.0247 55.0497 10.986 54.8942 10.7152 54.3369C10.3284 53.5464 9.79971 53.0281 9.79971 53.4428Z" fill="white"/>
<path d="M47.5544 54.1426C47.1805 54.2851 47.0644 54.4017 47.0644 54.635C47.0644 55.1274 47.3223 55.1404 47.7865 54.6739C48.3281 54.1166 48.2249 53.8834 47.5544 54.1426Z" fill="white"/>
<path d="M15.7311 54.8683C15.7311 54.8942 15.8343 54.9978 15.9632 55.0886C16.1566 55.257 16.1695 55.2441 16.0019 55.0367C15.8343 54.8294 15.7311 54.7646 15.7311 54.8683Z" fill="white"/>
<path d="M18.4389 55.0626C18.4389 55.1274 18.5034 55.2311 18.5679 55.27C18.6452 55.3089 18.6968 55.2959 18.6968 55.2181C18.6968 55.1534 18.6452 55.0497 18.5679 55.0108C18.5034 54.9719 18.4389 54.9849 18.4389 55.0626Z" fill="white"/>
<path d="M19.3029 55.8531C19.3415 56.1771 19.3931 56.4622 19.4189 56.4881C19.5221 56.6048 19.4447 55.7754 19.3415 55.5292C19.2642 55.3607 19.2513 55.4644 19.3029 55.8531Z" fill="white"/>
<path d="M49.7207 56.0475C49.7722 56.1512 49.8238 56.2419 49.8496 56.2419C49.8754 56.2419 49.9012 56.1512 49.9012 56.0475C49.9012 55.9438 49.8496 55.8531 49.7722 55.8531C49.7078 55.8531 49.682 55.9438 49.7207 56.0475Z" fill="white"/>
<path d="M48.3539 56.7603C48.2378 56.838 48.2249 56.8899 48.3152 56.8899C48.3926 56.8899 48.5086 56.8251 48.5473 56.7603C48.6504 56.6048 48.5989 56.6048 48.3539 56.7603Z" fill="white"/>
<path d="M18.4003 58.5875C18.4905 58.6782 18.5937 58.7171 18.6324 58.6782C18.671 58.6393 18.6066 58.5616 18.4776 58.5227C18.2971 58.4449 18.2842 58.4579 18.4003 58.5875Z" fill="white"/>
</g>
<defs>
<clipPath id="clip0_3_60">
<rect width="63.956" height="60" fill="white"/>
</clipPath>
</defs>
</svg>
