<svg width="30" height="30" viewBox="0 0 30 30" fill="none" xmlns="http://www.w3.org/2000/svg">
<path d="M12.5089 11.3906L18.8839 15.0134L12.5089 18.6362V11.3906ZM30 3.21429V26.7857C30 28.5603 28.5603 30 26.7857 30H3.21429C1.43973 30 0 28.5603 0 26.7857V3.21429C0 1.43973 1.43973 0 3.21429 0H26.7857C28.5603 0 30 1.43973 30 3.21429ZM27.1875 15.0201C27.1875 15.0201 27.1875 11.029 26.6786 9.11384C26.3973 8.0558 25.5737 7.22545 24.5223 6.9442C22.6272 6.42857 15 6.42857 15 6.42857C15 6.42857 7.37277 6.42857 5.47768 6.9442C4.42634 7.22545 3.60268 8.0558 3.32143 9.11384C2.8125 11.0223 2.8125 15.0201 2.8125 15.0201C2.8125 15.0201 2.8125 19.0112 3.32143 20.9263C3.60268 21.9844 4.42634 22.7812 5.47768 23.0625C7.37277 23.5714 15 23.5714 15 23.5714C15 23.5714 22.6272 23.5714 24.5223 23.0558C25.5737 22.7746 26.3973 21.9777 26.6786 20.9196C27.1875 19.0112 27.1875 15.0201 27.1875 15.0201Z" fill="#BCD5E8"/>
</svg>
